<svg xmlns="http://www.w3.org/2000/svg" width="44.997" height="44.998" viewBox="0 0 44.997 44.998">
  <path id="behance" d="M1393,7894.5a22.5,22.5,0,1,1,22.5,22.5A22.5,22.5,0,0,1,1393,7894.5Zm23.954,2.613s-.54,7.8,7.84,7.8c0,0,6.986.4,6.986-5.428h-3.592s.119,2.2-3.272,2.2a3.32,3.32,0,0,1-3.592-3.552H1431.9s1.156-8.86-7.105-8.86C1416.948,7889.271,1416.956,7897.113,1416.956,7897.113Zm-17.912,7.375h10.622s6.483.2,6.483-6.024c0,0,.284-5.066-3.823-5.066a3.543,3.543,0,0,0,3.115-3.884c0-3.652-2.547-5.435-5.776-5.435h-10.622Zm21.361-16.694h8.422v-2.514h-8.422Zm-16.68,13.068v-5.454h5.941s2.152-.028,2.152,2.8c0,2.358-1.574,2.626-2.426,2.65Zm17.56-5.454a3.651,3.651,0,0,1,3.59-3.147,3.04,3.04,0,0,1,3.114,3.147Zm-17.56-3.147v-4.554h5.941s1.444,0,1.444,2.122-.85,2.432-1.812,2.432Z" transform="translate(-1393.002 -7872.002)" fill="#333"/>
</svg>
