<svg xmlns="http://www.w3.org/2000/svg" xmlns:xlink="http://www.w3.org/1999/xlink" width="50" height="50" viewBox="0 0 50 50">
  <defs>
    <clipPath id="clip-path">
      <rect id="Rectangle_596" data-name="Rectangle 596" width="50" height="50" transform="translate(997 1100)" fill="#fff" stroke="#707070" stroke-width="1"/>
    </clipPath>
  </defs>
  <g id="bootstrap" transform="translate(-997 -1100)" clip-path="url(#clip-path)">
    <g id="Group_2" data-name="Group 2" transform="translate(-2736.469 -1460.755)">
      <path id="Path_2" data-name="Path 2" d="M1653.3,2052.135a5.626,5.626,0,0,0,5.635,5.635h32.3a5.626,5.626,0,0,0,5.635-5.635v-32.3a5.625,5.625,0,0,0-5.635-5.635h-32.3a5.625,5.625,0,0,0-5.635,5.635Z" transform="translate(2082.951 549.771)" fill="#563d7c"/>
      <path id="Path_3" data-name="Path 3" d="M1671.336,2033.366v-6.138h5.434a7.637,7.637,0,0,1,1.509.1,2.967,2.967,0,0,1,1.308.5,2.6,2.6,0,0,1,.906.906,3.361,3.361,0,0,1,.3,1.509,2.736,2.736,0,0,1-1.006,2.415,4.118,4.118,0,0,1-2.516.7ZM1665.5,2022.7v26.363h12.779a12.767,12.767,0,0,0,3.421-.4,8.31,8.31,0,0,0,3.019-1.409,6.148,6.148,0,0,0,2.113-2.415,7.852,7.852,0,0,0-.4-7.647,5.861,5.861,0,0,0-3.622-2.415,6.746,6.746,0,0,0,2.717-2.214,5.851,5.851,0,0,0,.906-3.321,7.183,7.183,0,0,0-.6-3.119,5.542,5.542,0,0,0-1.711-2.012A6.863,6.863,0,0,0,1681.5,2023a18.04,18.04,0,0,0-3.421-.3H1665.5Zm5.836,21.835v-7.245h6.339a4.691,4.691,0,0,1,3.019.906,3.286,3.286,0,0,1,1.107,2.918,4.336,4.336,0,0,1-.3,1.711,2.2,2.2,0,0,1-.906,1.006,4.557,4.557,0,0,1-1.409.6,8.788,8.788,0,0,1-1.61.2h-6.238Z" transform="translate(2083.027 549.824)" fill="#fff"/>
    </g>
  </g>
</svg>
