<svg xmlns="http://www.w3.org/2000/svg" width="44.997" height="44.998" viewBox="0 0 44.997 44.998">
  <path id="dribbble" d="M1453,7894.5a22.5,22.5,0,1,1,22.5,22.5A22.5,22.5,0,0,1,1453,7894.5Zm5.845,0a16.653,16.653,0,1,0,16.652-16.63A16.659,16.659,0,0,0,1458.848,7894.5Zm8.071,11.148c.4-.789,3.318-6.042,11.025-8.724a.048.048,0,0,0,.016,0,58.883,58.883,0,0,1,2.976,10.56,14.071,14.071,0,0,1-14.018-1.832Zm13.855-9.42a18.669,18.669,0,0,1,2.831-.212,20.913,20.913,0,0,1,5.774.807,14.054,14.054,0,0,1-5.911,9.271A61.344,61.344,0,0,0,1480.773,7896.229Zm-19.343-1.707c0-.115,0-.23.006-.348.085,0,.209,0,.37,0a52.641,52.641,0,0,0,14.049-2c.379.741.741,1.495,1.077,2.246-.157.045-.314.091-.469.141-7.03,2.271-10.9,8.283-11.49,9.265A13.98,13.98,0,0,1,1461.431,7894.522Zm21.625-.864a26.62,26.62,0,0,0-3.207.185c-.091-.222-.185-.447-.28-.671q-.426-1-.9-1.971a19.2,19.2,0,0,0,7.791-5.479,13.96,13.96,0,0,1,3.108,8.565A34.992,34.992,0,0,0,1483.056,7893.658Zm-21.306-2.112a14.1,14.1,0,0,1,7.705-9.708,89.994,89.994,0,0,1,5.148,8.013,53.275,53.275,0,0,1-12.716,1.695Zm10.576-10.711a14.044,14.044,0,0,1,12.442,3.129,16.051,16.051,0,0,1-7.266,4.987A75.885,75.885,0,0,0,1472.327,7880.834Z" transform="translate(-1453.002 -7872.002)" fill="#333"/>
</svg>
