<svg xmlns="http://www.w3.org/2000/svg" width="26.966" height="20.225" viewBox="0 0 26.966 20.225">
  <path id="email" d="M24.438,59.882H2.528A2.531,2.531,0,0,0,0,62.41V77.579a2.531,2.531,0,0,0,2.528,2.528h21.91a2.531,2.531,0,0,0,2.528-2.528V62.41A2.531,2.531,0,0,0,24.438,59.882Zm0,1.685a.838.838,0,0,1,.323.065L13.483,71.407,2.205,61.633a.839.839,0,0,1,.323-.065Zm0,16.854H2.528a.843.843,0,0,1-.843-.843V63.413l11.246,9.746a.844.844,0,0,0,1.1,0l11.246-9.746V77.579A.843.843,0,0,1,24.438,78.421Z" transform="translate(0 -59.882)" fill="#858585"/>
</svg>
