<svg xmlns="http://www.w3.org/2000/svg" xmlns:xlink="http://www.w3.org/1999/xlink" width="50" height="50" viewBox="0 0 50 50">
  <defs>
    <clipPath id="clip-path">
      <rect id="Rectangle_598" data-name="Rectangle 598" width="50" height="50" transform="translate(1154 1100)" fill="#fff" stroke="#707070" stroke-width="1"/>
    </clipPath>
  </defs>
  <g id="github" transform="translate(-1154 -1100)" clip-path="url(#clip-path)">
    <g id="github-logo" transform="translate(1156.773 1097.815)">
      <path id="Path_854" d="M40.638,16.237a21.147,21.147,0,0,0-7.892-7.892A22.109,22.109,0,0,0,21.792,5.4,20.946,20.946,0,0,0,10.837,8.345a21.147,21.147,0,0,0-7.892,7.892A21.96,21.96,0,0,0,4.123,40.031a21.258,21.258,0,0,0,10.719,7.892,1.451,1.451,0,0,0,1.178-.236,1.069,1.069,0,0,0,.353-.825v-4l-.707.118a6.717,6.717,0,0,1-1.531.118,11.605,11.605,0,0,1-2-.236,5.412,5.412,0,0,1-1.885-.825,3.851,3.851,0,0,1-1.3-1.767l-.236-.707a5.919,5.919,0,0,0-.942-1.414A3.341,3.341,0,0,0,6.6,37.086l-.236-.118-.353-.353c-.118-.236-.118-.353-.236-.471a.433.433,0,0,1,.118-.353,2,2,0,0,1,.825-.118l.589.118a3.981,3.981,0,0,1,1.414.707,3.273,3.273,0,0,1,1.414,1.414,5.545,5.545,0,0,0,1.531,1.767,3.559,3.559,0,0,0,1.885.589,7.777,7.777,0,0,0,1.649-.118,5.742,5.742,0,0,0,1.3-.471A4.949,4.949,0,0,1,17.9,36.733a25.509,25.509,0,0,1-2.945-.471A10.8,10.8,0,0,1,12.25,35.2a8.658,8.658,0,0,1-2.238-1.885,10.05,10.05,0,0,1-1.531-2.945,17.52,17.52,0,0,1-.589-4.241,8.575,8.575,0,0,1,2.238-5.89,7.833,7.833,0,0,1,.236-5.89,4.548,4.548,0,0,1,2.474.353c.825.353,1.649.707,2.356,1.06a7.558,7.558,0,0,0,1.178.707,21.577,21.577,0,0,1,10.955,0l1.06-.707a17.732,17.732,0,0,1,2.591-1.3,4,4,0,0,1,2.356-.353,7.535,7.535,0,0,1,.236,5.772,8.179,8.179,0,0,1,2.238,5.89,13.177,13.177,0,0,1-.589,4.241,8.776,8.776,0,0,1-1.531,2.945,6.2,6.2,0,0,1-2.356,1.885,10.8,10.8,0,0,1-2.709,1.06,11.843,11.843,0,0,1-2.945.471,5.225,5.225,0,0,1,1.531,4v6.007a1.069,1.069,0,0,0,.353.825,1.37,1.37,0,0,0,1.178.236A20.609,20.609,0,0,0,39.46,39.56,20.9,20.9,0,0,0,43.583,26.72a20.519,20.519,0,0,0-2.945-10.483Z"/>
    </g>
  </g>
</svg>
