<svg xmlns="http://www.w3.org/2000/svg" xmlns:xlink="http://www.w3.org/1999/xlink" width="50" height="50" viewBox="0 0 50 50">
  <defs>
    <clipPath id="clip-path">
      <rect id="Rectangle_594" data-name="Rectangle 594" width="50" height="50" transform="translate(859 1100)" fill="#fff" stroke="#707070" stroke-width="1"/>
    </clipPath>
  </defs>
  <g id="js" transform="translate(-859 -1100)" clip-path="url(#clip-path)">
    <path id="Path_927" d="M1521.4,2104l4.1-2.5c.8,1.4,1.5,2.6,3.2,2.6s2.7-.6,2.7-3.2v-17.1h5V2101c0,5.2-3.1,7.6-7.5,7.6a8.031,8.031,0,0,1-7.5-4.6m17.9-.6,4.1-2.4a5.556,5.556,0,0,0,5,3.1c2.1,0,3.4-1,3.4-2.5,0-1.7-1.4-2.3-3.7-3.3l-1.3-.5c-3.6-1.5-6.1-3.5-6.1-7.6,0-3.8,2.9-6.7,7.4-6.7a7.617,7.617,0,0,1,7.2,4l-3.9,2.5c-.9-1.5-1.8-2.2-3.2-2.2a2.23,2.23,0,0,0-2.4,2v.2c0,1.5.9,2.1,3.1,3.1l1.3.5c4.3,1.8,6.7,3.7,6.7,7.9,0,4.5-3.6,7-8.4,7-4.7.1-7.8-2.2-9.2-5.1" transform="translate(-655.4 -971.483)" fill="#f7df1e"/>
  </g>
</svg>
