<svg id="marker" xmlns="http://www.w3.org/2000/svg" width="20.875" height="28.821" viewBox="0 0 20.875 28.821">
  <g id="Group_46" data-name="Group 46" transform="translate(0)">
    <g id="Group_45" data-name="Group 45">
      <path id="Path_53" data-name="Path 53" d="M81.011,0A10.45,10.45,0,0,0,70.573,10.438c0,7.143,9.341,17.628,9.738,18.071a.94.94,0,0,0,1.4,0c.4-.443,9.738-10.929,9.738-18.071A10.45,10.45,0,0,0,81.011,0Zm0,26.441c-3.144-3.734-8.558-11.1-8.558-16a8.558,8.558,0,1,1,17.116,0C89.569,15.34,84.155,22.706,81.011,26.441Z" transform="translate(-70.573)" fill="#858585"/>
    </g>
  </g>
  <g id="Group_48" data-name="Group 48" transform="translate(5.186 5.186)">
    <g id="Group_47" data-name="Group 47">
      <path id="Path_54" data-name="Path 54" d="M167.959,92.134a5.251,5.251,0,1,0,5.251,5.251A5.257,5.257,0,0,0,167.959,92.134Zm0,8.623a3.372,3.372,0,1,1,3.372-3.372A3.376,3.376,0,0,1,167.959,100.757Z" transform="translate(-162.708 -92.134)" fill="#858585"/>
    </g>
  </g>
</svg>
