<svg id="phone_1_" data-name="phone (1)" xmlns="http://www.w3.org/2000/svg" width="23.363" height="23.364" viewBox="0 0 23.363 23.364">
  <g id="Group_50" data-name="Group 50" transform="translate(0 0)">
    <g id="Group_49" data-name="Group 49" transform="translate(0 0)">
      <path id="Path_55" data-name="Path 55" d="M22.91,18.578l-2.59-1.727-2.3-1.535a1.02,1.02,0,0,0-1.37.222L15.223,17.37a1.015,1.015,0,0,1-1.3.269,16.588,16.588,0,0,1-4.632-3.57,16.707,16.707,0,0,1-3.57-4.632,1.015,1.015,0,0,1,.269-1.3L7.825,6.717a1.02,1.02,0,0,0,.222-1.37L6.56,3.115,4.786.454A1.02,1.02,0,0,0,3.413.145L1.367,1.373A2.5,2.5,0,0,0,.232,2.842c-.559,2.04-.672,6.54,6.539,13.751s11.711,7.1,13.751,6.539A2.5,2.5,0,0,0,21.991,22l1.227-2.046A1.02,1.02,0,0,0,22.91,18.578Z" transform="translate(0 0)" fill="#858585"/>
      <path id="Path_56" data-name="Path 56" d="M282.885,62.6a6.855,6.855,0,0,1,6.848,6.848.4.4,0,0,0,.806,0,7.662,7.662,0,0,0-7.653-7.653.4.4,0,0,0,0,.806Z" transform="translate(-269.592 -58.972)" fill="#858585"/>
      <path id="Path_57" data-name="Path 57" d="M282.884,115.562a4.436,4.436,0,0,1,4.431,4.431.4.4,0,1,0,.806,0,5.243,5.243,0,0,0-5.237-5.237.4.4,0,1,0,0,.806Z" transform="translate(-269.591 -109.52)" fill="#858585"/>
      <path id="Path_58" data-name="Path 58" d="M282.885,168.529a2.016,2.016,0,0,1,2.014,2.014.4.4,0,0,0,.806,0,2.823,2.823,0,0,0-2.82-2.82.4.4,0,0,0,0,.806Z" transform="translate(-269.592 -160.07)" fill="#858585"/>
    </g>
  </g>
</svg>
