<svg xmlns="http://www.w3.org/2000/svg" width="44.998" height="44.998" viewBox="0 0 44.998 44.998">
  <path id="pinterest" d="M1535.5,7872a22.5,22.5,0,1,0,22.5,22.5A22.5,22.5,0,0,0,1535.5,7872Zm2.589,29.972a5.529,5.529,0,0,1-4.709-2.4s-1.12,4.439-1.355,5.3a20.536,20.536,0,0,1-3.481,6.307.256.256,0,0,1-.458-.111,21.625,21.625,0,0,1,.058-7.323c.369-1.565,2.478-10.5,2.478-10.5a7.418,7.418,0,0,1-.614-3.05c0-2.856,1.655-4.988,3.717-4.988,1.753,0,2.6,1.316,2.6,2.894,0,1.762-1.121,4.4-1.7,6.839a2.982,2.982,0,0,0,3.041,3.712c3.652,0,6.11-4.69,6.11-10.248,0-4.223-2.843-7.385-8.018-7.385a9.128,9.128,0,0,0-9.49,9.23,5.559,5.559,0,0,0,1.272,3.779.935.935,0,0,1,.277,1.074c-.094.355-.3,1.208-.393,1.546a.664.664,0,0,1-.966.483c-2.691-1.1-3.946-4.048-3.946-7.362,0-5.475,4.617-12.04,13.774-12.04,7.359,0,12.2,5.324,12.2,11.041C1548.488,7896.325,1544.284,7901.974,1538.089,7901.974Z" transform="translate(-1513.001 -7872.001)" fill="#333"/>
</svg>
