<svg xmlns="http://www.w3.org/2000/svg" xmlns:xlink="http://www.w3.org/1999/xlink" width="50" height="50" viewBox="0 0 50 50">
  <defs>
    <clipPath id="clip-path">
      <rect id="Rectangle_597" data-name="Rectangle 597" width="50" height="50" transform="translate(1079 1100)" fill="#fff" stroke="#707070" stroke-width="1"/>
    </clipPath>
  </defs>
  <g id="react-native" transform="translate(-1079 -1100)" clip-path="url(#clip-path)">
    <g id="react-native-1_1_" data-name="react-native-1 (1)" transform="translate(410.73 826.675)">
      <path id="Path_4" data-name="Path 4" d="M721.447,293.316c0-3.011-3.77-5.864-9.551-7.633,1.334-5.892.741-10.579-1.871-12.08a4.061,4.061,0,0,0-2.075-.519v2.066a2.146,2.146,0,0,1,1.056.241c1.26.723,1.806,3.474,1.38,7.012-.1.871-.268,1.788-.472,2.723a44.906,44.906,0,0,0-5.883-1.01,45.161,45.161,0,0,0-3.854-4.632c3.02-2.807,5.855-4.345,7.781-4.345v-2.066c-2.548,0-5.882,1.816-9.254,4.965-3.372-3.131-6.707-4.928-9.254-4.928v2.066c1.918,0,4.761,1.529,7.781,4.317a43.753,43.753,0,0,0-3.826,4.622,43.254,43.254,0,0,0-5.891,1.019c-.213-.926-.371-1.825-.482-2.686-.435-3.539.1-6.29,1.353-7.022a2.061,2.061,0,0,1,1.065-.241v-2.066a4.13,4.13,0,0,0-2.094.519c-2.6,1.5-3.187,6.179-1.844,12.052-5.762,1.779-9.514,4.623-9.514,7.624s3.77,5.864,9.551,7.633c-1.334,5.892-.741,10.579,1.871,12.08a4.073,4.073,0,0,0,2.084.519c2.547,0,5.882-1.816,9.254-4.965,3.372,3.131,6.707,4.928,9.254,4.928a4.13,4.13,0,0,0,2.094-.519c2.6-1.5,3.187-6.179,1.843-12.052C717.7,299.17,721.447,296.317,721.447,293.316Zm-12.061-6.179c-.343,1.2-.769,2.427-1.251,3.659-.38-.741-.778-1.482-1.213-2.223s-.88-1.464-1.334-2.168C706.9,286.6,708.172,286.841,709.386,287.137ZM705.143,297c-.723,1.251-1.464,2.436-2.232,3.539-1.38.12-2.779.185-4.187.185s-2.8-.065-4.168-.176q-1.153-1.654-2.242-3.52c-.7-1.213-1.343-2.445-1.927-3.687.574-1.241,1.223-2.483,1.918-3.7.723-1.251,1.463-2.436,2.232-3.539,1.38-.12,2.779-.185,4.187-.185s2.8.065,4.169.176q1.153,1.654,2.242,3.52c.7,1.213,1.343,2.445,1.927,3.687C706.477,294.548,705.838,295.789,705.143,297Zm2.992-1.2q.729,1.811,1.278,3.687c-1.214.3-2.492.547-3.817.741.454-.713.908-1.445,1.334-2.2S707.755,296.539,708.135,295.8Zm-9.393,9.884a38.231,38.231,0,0,1-2.575-2.964c.834.037,1.686.065,2.547.065s1.732-.018,2.575-.065a36.169,36.169,0,0,1-2.548,2.964Zm-6.892-5.456c-1.315-.194-2.584-.435-3.8-.732.343-1.195.769-2.427,1.251-3.659.38.741.778,1.482,1.213,2.223S691.4,299.522,691.85,300.226Zm6.846-19.277a38.166,38.166,0,0,1,2.575,2.964c-.834-.037-1.686-.065-2.547-.065s-1.732.019-2.575.065A36.179,36.179,0,0,1,698.7,280.949Zm-6.855,5.456c-.454.713-.908,1.445-1.334,2.2s-.824,1.482-1.2,2.223q-.729-1.811-1.278-3.687C689.238,286.85,690.516,286.6,691.841,286.405ZM683.457,298c-3.279-1.4-5.4-3.233-5.4-4.687s2.121-3.3,5.4-4.687c.8-.343,1.668-.649,2.566-.936a44.507,44.507,0,0,0,2.084,5.642,43.852,43.852,0,0,0-2.056,5.614C685.134,298.661,684.263,298.346,683.457,298Zm4.984,13.238c-1.26-.723-1.807-3.474-1.38-7.013.1-.871.268-1.788.472-2.724a44.862,44.862,0,0,0,5.882,1.01,45.186,45.186,0,0,0,3.854,4.632c-3.02,2.807-5.855,4.345-7.781,4.345A2.209,2.209,0,0,1,688.441,311.241Zm21.973-7.059c.435,3.539-.1,6.29-1.353,7.022a2.061,2.061,0,0,1-1.065.241c-1.917,0-4.761-1.529-7.781-4.317a43.734,43.734,0,0,0,3.826-4.623,43.261,43.261,0,0,0,5.892-1.019A25.907,25.907,0,0,1,710.414,304.182ZM713.98,298c-.8.343-1.668.649-2.566.936a44.517,44.517,0,0,0-2.084-5.641,43.843,43.843,0,0,0,2.057-5.614c.917.287,1.788.6,2.6.945,3.279,1.4,5.4,3.233,5.4,4.687S717.26,296.614,713.98,298Z" transform="translate(-5.79)" fill="#61dafb"/>
      <path id="Path_5" data-name="Path 5" d="M692.924,1054.317a4.233,4.233,0,1,0-4.233-4.234A4.233,4.233,0,0,0,692.924,1054.317Zm-20.65,23.287h-1.4v2.407h-.789v-5.95h1.97a2.322,2.322,0,0,1,1.545.458,1.643,1.643,0,0,1,.544,1.332,1.6,1.6,0,0,1-.3.969,1.779,1.779,0,0,1-.834.617l1.4,2.525v.049h-.842Zm-1.4-.641h1.205a1.353,1.353,0,0,0,.928-.3,1.019,1.019,0,0,0,.347-.809,1.072,1.072,0,0,0-.331-.846,1.385,1.385,0,0,0-.948-.3h-1.2Zm6.089,3.13a1.935,1.935,0,0,1-1.463-.589,2.2,2.2,0,0,1-.564-1.581v-.139a2.658,2.658,0,0,1,.249-1.172,1.961,1.961,0,0,1,.7-.809,1.768,1.768,0,0,1,.981-.294,1.655,1.655,0,0,1,1.34.568,2.459,2.459,0,0,1,.478,1.626v.315h-3a1.585,1.585,0,0,0,.38,1.058,1.21,1.21,0,0,0,.932.4,1.315,1.315,0,0,0,.678-.163,1.7,1.7,0,0,0,.486-.433l.462.36A1.857,1.857,0,0,1,676.965,1080.093Zm-.094-3.964a1.006,1.006,0,0,0-.768.335,1.608,1.608,0,0,0-.384.932h2.215v-.057a1.432,1.432,0,0,0-.311-.891A.948.948,0,0,0,676.871,1076.129Zm5.426,3.882a1.583,1.583,0,0,1-.106-.466,1.687,1.687,0,0,1-1.259.548,1.574,1.574,0,0,1-1.075-.368,1.205,1.205,0,0,1-.417-.94,1.246,1.246,0,0,1,.523-1.071,2.474,2.474,0,0,1,1.479-.384h.736v-.347a.842.842,0,0,0-.237-.629.948.948,0,0,0-.7-.237,1.1,1.1,0,0,0-.678.2.6.6,0,0,0-.274.495h-.76a1.042,1.042,0,0,1,.233-.638,1.616,1.616,0,0,1,.638-.49,2.16,2.16,0,0,1,.887-.18,1.741,1.741,0,0,1,1.2.384,1.372,1.372,0,0,1,.45,1.05v2.035a2.485,2.485,0,0,0,.155.968v.066Zm-1.254-.576a1.328,1.328,0,0,0,.674-.184,1.114,1.114,0,0,0,.462-.478v-.907h-.593q-1.389,0-1.389.813a.689.689,0,0,0,.237.556A.912.912,0,0,0,681.043,1079.435Zm4.85.041a1.09,1.09,0,0,0,.707-.245.862.862,0,0,0,.335-.613h.715a1.371,1.371,0,0,1-.262.723,1.717,1.717,0,0,1-.646.547,1.966,1.966,0,0,1-2.288-.4,2.415,2.415,0,0,1-.531-1.651v-.127a2.66,2.66,0,0,1,.237-1.148,1.808,1.808,0,0,1,.678-.781,1.941,1.941,0,0,1,1.05-.278,1.765,1.765,0,0,1,1.234.446,1.589,1.589,0,0,1,.527,1.156h-.715a1.03,1.03,0,0,0-.327-.7,1,1,0,0,0-.719-.278,1.061,1.061,0,0,0-.895.417,1.949,1.949,0,0,0-.315,1.2v.143a1.91,1.91,0,0,0,.315,1.177A1.063,1.063,0,0,0,685.893,1079.475Zm3.633-4.956v1.07h.826v.584h-.826v2.742a.621.621,0,0,0,.11.4.468.468,0,0,0,.376.131,1.827,1.827,0,0,0,.359-.049v.613a2.192,2.192,0,0,1-.58.082.942.942,0,0,1-.764-.307,1.318,1.318,0,0,1-.257-.87v-2.742h-.805v-.584h.805v-1.07Zm8.479,5.492h-.789l-3-4.585v4.585h-.789v-5.95h.789l3,4.605v-4.605H698Zm4,0a1.583,1.583,0,0,1-.106-.466,1.687,1.687,0,0,1-1.259.548,1.574,1.574,0,0,1-1.075-.368,1.206,1.206,0,0,1-.417-.94,1.246,1.246,0,0,1,.523-1.071,2.474,2.474,0,0,1,1.479-.384h.736v-.347a.842.842,0,0,0-.237-.629.947.947,0,0,0-.7-.237,1.1,1.1,0,0,0-.678.2.6.6,0,0,0-.274.495h-.76a1.042,1.042,0,0,1,.233-.638,1.615,1.615,0,0,1,.638-.49,2.16,2.16,0,0,1,.887-.18,1.742,1.742,0,0,1,1.2.384,1.372,1.372,0,0,1,.45,1.05v2.035a2.485,2.485,0,0,0,.155.968v.066Zm-1.254-.576a1.328,1.328,0,0,0,.674-.184,1.114,1.114,0,0,0,.462-.478v-.907H701.3q-1.389,0-1.389.813a.689.689,0,0,0,.237.556A.912.912,0,0,0,700.755,1079.435Zm4.1-4.916v1.07h.826v.584h-.826v2.742a.621.621,0,0,0,.11.4.468.468,0,0,0,.376.131,1.832,1.832,0,0,0,.36-.049v.613a2.2,2.2,0,0,1-.58.082.942.942,0,0,1-.764-.307,1.318,1.318,0,0,1-.257-.87v-2.742h-.8v-.584h.8v-1.07Zm2.534,5.492h-.756v-4.421h.756Zm-.817-5.594a.457.457,0,0,1,.11-.311.507.507,0,0,1,.67,0,.446.446,0,0,1,.114.311.469.469,0,0,1-.784.307A.442.442,0,0,1,706.573,1074.417Zm3.49,4.568,1.095-3.4h.772l-1.586,4.421h-.576l-1.6-4.421h.772Zm4.372,1.107a1.935,1.935,0,0,1-1.463-.589,2.2,2.2,0,0,1-.564-1.581v-.139a2.658,2.658,0,0,1,.249-1.172,1.96,1.96,0,0,1,.7-.809,1.768,1.768,0,0,1,.981-.294,1.656,1.656,0,0,1,1.34.568,2.459,2.459,0,0,1,.478,1.626v.315h-3a1.585,1.585,0,0,0,.38,1.058,1.21,1.21,0,0,0,.932.4,1.316,1.316,0,0,0,.678-.163,1.7,1.7,0,0,0,.486-.433l.462.36A1.857,1.857,0,0,1,714.435,1080.093Zm-.094-3.964a1,1,0,0,0-.768.335,1.607,1.607,0,0,0-.384.932H715.4v-.057a1.431,1.431,0,0,0-.31-.891A.947.947,0,0,0,714.341,1076.129Z" transform="translate(0 -756.768)" fill="#61dafb"/>
    </g>
  </g>
</svg>
